<mxfile host="65bd71144e">
    <diagram id="o6yyYHxXsEDgrrS67M8B" name="第 1 页">
        <mxGraphModel dx="3221" dy="1358" grid="1" gridSize="10" guides="1" tooltips="1" connect="1" arrows="1" fold="1" page="1" pageScale="1" pageWidth="827" pageHeight="1169" math="0" shadow="0">
            <root>
                <mxCell id="0"/>
                <mxCell id="1" parent="0"/>
                <mxCell id="163" value="" style="rounded=1;whiteSpace=wrap;html=1;sketch=1;hachureGap=4;jiggle=2;curveFitting=1;fontFamily=Verdana;fontSize=16;fillColor=#dae8fc;strokeColor=#6c8ebf;arcSize=9;" parent="1" vertex="1">
                    <mxGeometry x="-1390" y="550" width="1140" height="540" as="geometry"/>
                </mxCell>
                <mxCell id="103" value="" style="rounded=1;whiteSpace=wrap;html=1;sketch=1;hachureGap=4;jiggle=2;curveFitting=1;fontFamily=Verdana;fontSize=16;fillColor=#dae8fc;strokeColor=#6c8ebf;arcSize=12;" parent="1" vertex="1">
                    <mxGeometry x="-1060" y="20" width="470" height="420" as="geometry"/>
                </mxCell>
                <mxCell id="129" value="" style="rounded=1;whiteSpace=wrap;html=1;sketch=1;hachureGap=4;jiggle=2;curveFitting=1;fontFamily=Architects Daughter;fontSource=https%3A%2F%2Ffonts.googleapis.com%2Fcss%3Ffamily%3DArchitects%2BDaughter;fontSize=16;fillColor=#f8cecc;strokeColor=#b85450;" parent="1" vertex="1">
                    <mxGeometry x="-1030" y="160" width="410" height="160" as="geometry"/>
                </mxCell>
                <mxCell id="117" value="" style="rounded=1;whiteSpace=wrap;html=1;sketch=1;hachureGap=4;jiggle=2;curveFitting=1;fontFamily=Architects Daughter;fontSource=https%3A%2F%2Ffonts.googleapis.com%2Fcss%3Ffamily%3DArchitects%2BDaughter;fontSize=16;fillColor=#f8cecc;strokeColor=#b85450;" parent="1" vertex="1">
                    <mxGeometry x="-1030" y="690" width="410" height="170" as="geometry"/>
                </mxCell>
                <mxCell id="128" value="" style="rounded=1;whiteSpace=wrap;html=1;sketch=1;hachureGap=4;jiggle=2;curveFitting=1;fontFamily=Architects Daughter;fontSource=https%3A%2F%2Ffonts.googleapis.com%2Fcss%3Ffamily%3DArchitects%2BDaughter;fontSize=16;fillColor=#cdeb8b;strokeColor=#36393d;" parent="1" vertex="1">
                    <mxGeometry x="-1000" y="710" width="350" height="120" as="geometry"/>
                </mxCell>
                <mxCell id="125" value="" style="rounded=1;whiteSpace=wrap;html=1;sketch=1;hachureGap=4;jiggle=2;curveFitting=1;fontFamily=Architects Daughter;fontSource=https%3A%2F%2Ffonts.googleapis.com%2Fcss%3Ffamily%3DArchitects%2BDaughter;fontSize=16;fillColor=#cdeb8b;strokeColor=#36393d;" parent="1" vertex="1">
                    <mxGeometry x="-1000" y="180" width="350" height="110.29" as="geometry"/>
                </mxCell>
                <mxCell id="97" value="" style="edgeStyle=none;sketch=1;hachureGap=4;jiggle=2;curveFitting=1;html=1;fontFamily=Architects Daughter;fontSource=https%3A%2F%2Ffonts.googleapis.com%2Fcss%3Ffamily%3DArchitects%2BDaughter;fontSize=16;" parent="1" source="93" target="96" edge="1">
                    <mxGeometry relative="1" as="geometry"/>
                </mxCell>
                <mxCell id="101" style="edgeStyle=none;sketch=1;hachureGap=4;jiggle=2;curveFitting=1;html=1;exitX=0.75;exitY=1;exitDx=0;exitDy=0;entryX=0.25;entryY=0;entryDx=0;entryDy=0;fontFamily=Architects Daughter;fontSource=https%3A%2F%2Ffonts.googleapis.com%2Fcss%3Ffamily%3DArchitects%2BDaughter;fontSize=16;" parent="1" source="93" target="100" edge="1">
                    <mxGeometry relative="1" as="geometry"/>
                </mxCell>
                <mxCell id="93" value="&lt;font face=&quot;Verdana&quot;&gt;Matrix scan&lt;/font&gt;" style="rounded=1;whiteSpace=wrap;html=1;sketch=1;hachureGap=4;jiggle=2;curveFitting=1;fontFamily=Architects Daughter;fontSource=https%3A%2F%2Ffonts.googleapis.com%2Fcss%3Ffamily%3DArchitects%2BDaughter;fontSize=16;fillColor=#cdeb8b;strokeColor=#36393d;" parent="1" vertex="1">
                    <mxGeometry x="-885" y="80.28999999999996" width="120" height="60" as="geometry"/>
                </mxCell>
                <mxCell id="120" style="edgeStyle=none;sketch=1;hachureGap=4;jiggle=2;curveFitting=1;html=1;exitX=0.5;exitY=1;exitDx=0;exitDy=0;entryX=0.5;entryY=0;entryDx=0;entryDy=0;fontFamily=Verdana;fontSize=12;" parent="1" source="96" target="119" edge="1">
                    <mxGeometry relative="1" as="geometry"/>
                </mxCell>
                <mxCell id="121" value="&lt;font style=&quot;font-size: 20px;&quot;&gt;Serial&lt;/font&gt;" style="edgeLabel;html=1;align=center;verticalAlign=middle;resizable=0;points=[];fontSize=12;fontFamily=Verdana;" parent="120" vertex="1" connectable="0">
                    <mxGeometry x="-0.1011" y="-2" relative="1" as="geometry">
                        <mxPoint x="2" y="30" as="offset"/>
                    </mxGeometry>
                </mxCell>
                <mxCell id="96" value="&lt;font face=&quot;Verdana&quot;&gt;SerialSplit&lt;br&gt;Driver&lt;/font&gt;" style="rounded=1;whiteSpace=wrap;html=1;sketch=1;hachureGap=4;jiggle=2;curveFitting=1;fontFamily=Architects Daughter;fontSource=https%3A%2F%2Ffonts.googleapis.com%2Fcss%3Ffamily%3DArchitects%2BDaughter;fontSize=16;" parent="1" vertex="1">
                    <mxGeometry x="-985" y="195.28999999999996" width="120" height="60" as="geometry"/>
                </mxCell>
                <mxCell id="112" style="edgeStyle=none;sketch=1;hachureGap=4;jiggle=2;curveFitting=1;html=1;exitX=0.5;exitY=1;exitDx=0;exitDy=0;entryX=0.5;entryY=0;entryDx=0;entryDy=0;fontFamily=Architects Daughter;fontSource=https%3A%2F%2Ffonts.googleapis.com%2Fcss%3Ffamily%3DArchitects%2BDaughter;fontSize=16;" parent="1" source="98" target="107" edge="1">
                    <mxGeometry relative="1" as="geometry"/>
                </mxCell>
                <mxCell id="113" value="&lt;font face=&quot;Verdana&quot;&gt;BLE&lt;/font&gt;" style="edgeLabel;html=1;align=center;verticalAlign=middle;resizable=0;points=[];fontSize=20;fontFamily=Helvetica;" parent="112" vertex="1" connectable="0">
                    <mxGeometry x="-0.045" y="-5" relative="1" as="geometry">
                        <mxPoint x="5" y="9" as="offset"/>
                    </mxGeometry>
                </mxCell>
                <mxCell id="98" value="&lt;font face=&quot;Verdana&quot;&gt;BleSplit&lt;br&gt;SlaveServer&lt;/font&gt;" style="rounded=1;whiteSpace=wrap;html=1;sketch=1;hachureGap=4;jiggle=2;curveFitting=1;fontFamily=Architects Daughter;fontSource=https%3A%2F%2Ffonts.googleapis.com%2Fcss%3Ffamily%3DArchitects%2BDaughter;fontSize=16;" parent="1" vertex="1">
                    <mxGeometry x="-787.15" y="349.99999999999994" width="120" height="60" as="geometry"/>
                </mxCell>
                <mxCell id="102" style="edgeStyle=none;sketch=1;hachureGap=4;jiggle=2;curveFitting=1;html=1;exitX=0.5;exitY=1;exitDx=0;exitDy=0;entryX=0.5;entryY=0;entryDx=0;entryDy=0;fontFamily=Architects Daughter;fontSource=https%3A%2F%2Ffonts.googleapis.com%2Fcss%3Ffamily%3DArchitects%2BDaughter;fontSize=16;" parent="1" source="100" target="98" edge="1">
                    <mxGeometry relative="1" as="geometry"/>
                </mxCell>
                <mxCell id="100" value="&lt;span style=&quot;font-family: Verdana;&quot;&gt;BleSplit&lt;/span&gt;&lt;br style=&quot;border-color: var(--border-color); font-family: Verdana;&quot;&gt;&lt;span style=&quot;font-family: Verdana;&quot;&gt;SlaveDriver&lt;/span&gt;" style="rounded=1;whiteSpace=wrap;html=1;sketch=1;hachureGap=4;jiggle=2;curveFitting=1;fontFamily=Architects Daughter;fontSource=https%3A%2F%2Ffonts.googleapis.com%2Fcss%3Ffamily%3DArchitects%2BDaughter;fontSize=16;" parent="1" vertex="1">
                    <mxGeometry x="-787.15" y="195.28999999999996" width="120" height="60" as="geometry"/>
                </mxCell>
                <mxCell id="104" value="slave" style="text;html=1;strokeColor=none;fillColor=none;align=center;verticalAlign=middle;whiteSpace=wrap;rounded=0;sketch=1;hachureGap=4;jiggle=2;curveFitting=1;fontFamily=Verdana;fontSize=24;" parent="1" vertex="1">
                    <mxGeometry x="-855" y="30" width="60" height="40.29" as="geometry"/>
                </mxCell>
                <mxCell id="111" value="" style="edgeStyle=none;sketch=1;hachureGap=4;jiggle=2;curveFitting=1;html=1;fontFamily=Architects Daughter;fontSource=https%3A%2F%2Ffonts.googleapis.com%2Fcss%3Ffamily%3DArchitects%2BDaughter;fontSize=16;" parent="1" source="107" target="109" edge="1">
                    <mxGeometry relative="1" as="geometry"/>
                </mxCell>
                <mxCell id="114" value="channel" style="edgeLabel;html=1;align=center;verticalAlign=middle;resizable=0;points=[];fontSize=12;fontFamily=Verdana;" parent="111" vertex="1" connectable="0">
                    <mxGeometry x="-0.0217" y="2" relative="1" as="geometry">
                        <mxPoint x="-2" y="-13" as="offset"/>
                    </mxGeometry>
                </mxCell>
                <mxCell id="107" value="&lt;font face=&quot;Verdana&quot;&gt;BleSplit&lt;br&gt;MasterClient&lt;/font&gt;" style="rounded=1;whiteSpace=wrap;html=1;sketch=1;hachureGap=4;jiggle=2;curveFitting=1;fontFamily=Architects Daughter;fontSource=https%3A%2F%2Ffonts.googleapis.com%2Fcss%3Ffamily%3DArchitects%2BDaughter;fontSize=16;" parent="1" vertex="1">
                    <mxGeometry x="-787.15" y="579" width="120" height="60" as="geometry"/>
                </mxCell>
                <mxCell id="109" value="&lt;font face=&quot;Verdana&quot;&gt;BleSplit&lt;br&gt;MasterDriver&lt;/font&gt;" style="rounded=1;whiteSpace=wrap;html=1;sketch=1;hachureGap=4;jiggle=2;curveFitting=1;fontFamily=Architects Daughter;fontSource=https%3A%2F%2Ffonts.googleapis.com%2Fcss%3Ffamily%3DArchitects%2BDaughter;fontSize=16;" parent="1" vertex="1">
                    <mxGeometry x="-787.15" y="730" width="120" height="60" as="geometry"/>
                </mxCell>
                <mxCell id="119" value="&lt;font face=&quot;Verdana&quot;&gt;SerialSplit&lt;br&gt;Driver&lt;/font&gt;" style="rounded=1;whiteSpace=wrap;html=1;sketch=1;hachureGap=4;jiggle=2;curveFitting=1;fontFamily=Architects Daughter;fontSource=https%3A%2F%2Ffonts.googleapis.com%2Fcss%3Ffamily%3DArchitects%2BDaughter;fontSize=16;" parent="1" vertex="1">
                    <mxGeometry x="-985" y="735" width="120" height="60" as="geometry"/>
                </mxCell>
                <mxCell id="126" value="SplitReader + SplitWriter" style="text;html=1;strokeColor=none;fillColor=none;align=center;verticalAlign=middle;whiteSpace=wrap;rounded=0;sketch=1;hachureGap=4;jiggle=2;curveFitting=1;fontFamily=Verdana;fontSize=14;" parent="1" vertex="1">
                    <mxGeometry x="-974.3" y="260.28999999999996" width="292.15" height="30" as="geometry"/>
                </mxCell>
                <mxCell id="127" value="SplitReader + SplitWriter" style="text;html=1;strokeColor=none;fillColor=none;align=center;verticalAlign=middle;whiteSpace=wrap;rounded=0;sketch=1;hachureGap=4;jiggle=2;curveFitting=1;fontFamily=Verdana;fontSize=14;" parent="1" vertex="1">
                    <mxGeometry x="-969.02" y="800" width="292.15" height="30" as="geometry"/>
                </mxCell>
                <mxCell id="130" value="SplitSlave" style="text;html=1;strokeColor=none;fillColor=none;align=center;verticalAlign=middle;whiteSpace=wrap;rounded=0;sketch=1;hachureGap=4;jiggle=2;curveFitting=1;fontFamily=Verdana;fontSize=14;" parent="1" vertex="1">
                    <mxGeometry x="-974.3" y="290.28999999999996" width="292.15" height="30" as="geometry"/>
                </mxCell>
                <mxCell id="147" style="edgeStyle=none;sketch=1;hachureGap=4;jiggle=2;curveFitting=1;html=1;exitX=0.75;exitY=1;exitDx=0;exitDy=0;entryX=0.5;entryY=0;entryDx=0;entryDy=0;fontFamily=Verdana;fontSize=14;" parent="1" source="131" target="143" edge="1">
                    <mxGeometry relative="1" as="geometry"/>
                </mxCell>
                <mxCell id="150" value="sync" style="edgeLabel;html=1;align=center;verticalAlign=middle;resizable=0;points=[];fontSize=14;fontFamily=Verdana;" parent="147" vertex="1" connectable="0">
                    <mxGeometry x="-0.3752" relative="1" as="geometry">
                        <mxPoint x="-1" as="offset"/>
                    </mxGeometry>
                </mxCell>
                <mxCell id="131" value="SlaveMatrixMonitor" style="text;html=1;strokeColor=none;fillColor=none;align=center;verticalAlign=middle;whiteSpace=wrap;rounded=0;sketch=1;hachureGap=4;jiggle=2;curveFitting=1;fontFamily=Verdana;fontSize=14;" parent="1" vertex="1">
                    <mxGeometry x="-969.02" y="830" width="292.15" height="30" as="geometry"/>
                </mxCell>
                <mxCell id="139" value="" style="rounded=1;whiteSpace=wrap;html=1;sketch=1;hachureGap=4;jiggle=2;curveFitting=1;fontFamily=Architects Daughter;fontSource=https%3A%2F%2Ffonts.googleapis.com%2Fcss%3Ffamily%3DArchitects%2BDaughter;fontSize=16;fillColor=#e1d5e7;strokeColor=#9673a6;" parent="1" vertex="1">
                    <mxGeometry x="-1357.94" y="930" width="1070" height="120" as="geometry"/>
                </mxCell>
                <mxCell id="151" value="" style="edgeStyle=none;sketch=1;hachureGap=4;jiggle=2;curveFitting=1;html=1;fontFamily=Verdana;fontSize=14;" parent="1" source="140" target="141" edge="1">
                    <mxGeometry relative="1" as="geometry"/>
                </mxCell>
                <mxCell id="140" value="&lt;font face=&quot;Verdana&quot;&gt;scan master matrix&lt;/font&gt;" style="rounded=1;whiteSpace=wrap;html=1;sketch=1;hachureGap=4;jiggle=2;curveFitting=1;fontFamily=Architects Daughter;fontSource=https%3A%2F%2Ffonts.googleapis.com%2Fcss%3Ffamily%3DArchitects%2BDaughter;fontSize=16;" parent="1" vertex="1">
                    <mxGeometry x="-1180" y="960" width="120" height="60" as="geometry"/>
                </mxCell>
                <mxCell id="146" style="edgeStyle=none;sketch=1;hachureGap=4;jiggle=2;curveFitting=1;html=1;exitX=0.5;exitY=0;exitDx=0;exitDy=0;entryX=0.25;entryY=1;entryDx=0;entryDy=0;fontFamily=Verdana;fontSize=14;" parent="1" source="141" target="131" edge="1">
                    <mxGeometry relative="1" as="geometry"/>
                </mxCell>
                <mxCell id="148" value="signal" style="edgeLabel;html=1;align=center;verticalAlign=middle;resizable=0;points=[];fontSize=14;fontFamily=Verdana;" parent="146" vertex="1" connectable="0">
                    <mxGeometry x="0.1677" relative="1" as="geometry">
                        <mxPoint x="3" y="-12" as="offset"/>
                    </mxGeometry>
                </mxCell>
                <mxCell id="141" value="&lt;font face=&quot;Verdana&quot;&gt;scan slave matrix&lt;/font&gt;" style="rounded=1;whiteSpace=wrap;html=1;sketch=1;hachureGap=4;jiggle=2;curveFitting=1;fontFamily=Architects Daughter;fontSource=https%3A%2F%2Ffonts.googleapis.com%2Fcss%3Ffamily%3DArchitects%2BDaughter;fontSize=16;" parent="1" vertex="1">
                    <mxGeometry x="-1020" y="960" width="120" height="60" as="geometry"/>
                </mxCell>
                <mxCell id="156" value="" style="edgeStyle=none;sketch=1;hachureGap=4;jiggle=2;curveFitting=1;html=1;fontFamily=Verdana;fontSize=14;" parent="1" source="143" target="152" edge="1">
                    <mxGeometry relative="1" as="geometry"/>
                </mxCell>
                <mxCell id="143" value="&lt;font face=&quot;Verdana&quot;&gt;synced slave matrix&lt;/font&gt;" style="rounded=1;whiteSpace=wrap;html=1;sketch=1;hachureGap=4;jiggle=2;curveFitting=1;fontFamily=Architects Daughter;fontSource=https%3A%2F%2Ffonts.googleapis.com%2Fcss%3Ffamily%3DArchitects%2BDaughter;fontSize=16;" parent="1" vertex="1">
                    <mxGeometry x="-755" y="960" width="120" height="60" as="geometry"/>
                </mxCell>
                <mxCell id="157" value="" style="edgeStyle=none;sketch=1;hachureGap=4;jiggle=2;curveFitting=1;html=1;fontFamily=Verdana;fontSize=14;" parent="1" source="152" target="153" edge="1">
                    <mxGeometry relative="1" as="geometry"/>
                </mxCell>
                <mxCell id="152" value="&lt;font face=&quot;Verdana&quot;&gt;process key&lt;/font&gt;" style="rounded=1;whiteSpace=wrap;html=1;sketch=1;hachureGap=4;jiggle=2;curveFitting=1;fontFamily=Architects Daughter;fontSource=https%3A%2F%2Ffonts.googleapis.com%2Fcss%3Ffamily%3DArchitects%2BDaughter;fontSize=16;" parent="1" vertex="1">
                    <mxGeometry x="-602" y="960" width="120" height="60" as="geometry"/>
                </mxCell>
                <mxCell id="153" value="&lt;font face=&quot;Verdana&quot;&gt;send report&lt;br&gt;&lt;/font&gt;" style="rounded=1;whiteSpace=wrap;html=1;sketch=1;hachureGap=4;jiggle=2;curveFitting=1;fontFamily=Architects Daughter;fontSource=https%3A%2F%2Ffonts.googleapis.com%2Fcss%3Ffamily%3DArchitects%2BDaughter;fontSize=16;" parent="1" vertex="1">
                    <mxGeometry x="-453" y="960" width="120" height="60" as="geometry"/>
                </mxCell>
                <mxCell id="161" value="&lt;font style=&quot;font-size: 18px;&quot;&gt;main keyboard thread&lt;/font&gt;" style="text;html=1;strokeColor=none;fillColor=none;align=center;verticalAlign=middle;whiteSpace=wrap;rounded=0;sketch=1;hachureGap=4;jiggle=2;curveFitting=1;fontFamily=Verdana;fontSize=14;" parent="1" vertex="1">
                    <mxGeometry x="-1350" y="975" width="150" height="30" as="geometry"/>
                </mxCell>
                <mxCell id="164" value="master" style="text;html=1;strokeColor=none;fillColor=none;align=center;verticalAlign=middle;whiteSpace=wrap;rounded=0;sketch=1;hachureGap=4;jiggle=2;curveFitting=1;fontFamily=Verdana;fontSize=24;" parent="1" vertex="1">
                    <mxGeometry x="-1305" y="598.7099999999998" width="60" height="40.29" as="geometry"/>
                </mxCell>
                <mxCell id="165" value="&lt;font style=&quot;font-size: 18px;&quot;&gt;split master thread&lt;/font&gt;" style="text;html=1;strokeColor=none;fillColor=none;align=center;verticalAlign=middle;whiteSpace=wrap;rounded=0;sketch=1;hachureGap=4;jiggle=2;curveFitting=1;fontFamily=Verdana;fontSize=14;" parent="1" vertex="1">
                    <mxGeometry x="-1230" y="760" width="150" height="30" as="geometry"/>
                </mxCell>
                <mxCell id="166" value="" style="edgeStyle=none;orthogonalLoop=1;jettySize=auto;html=1;sketch=1;hachureGap=4;jiggle=2;curveFitting=1;fontFamily=Architects Daughter;fontSource=https%3A%2F%2Ffonts.googleapis.com%2Fcss%3Ffamily%3DArchitects%2BDaughter;fontSize=16;" edge="1" parent="1">
                    <mxGeometry width="80" relative="1" as="geometry">
                        <mxPoint x="-1130" y="800" as="sourcePoint"/>
                        <mxPoint x="-1050" y="800" as="targetPoint"/>
                        <Array as="points"/>
                    </mxGeometry>
                </mxCell>
                <mxCell id="167" value="&lt;font style=&quot;font-size: 18px;&quot;&gt;or&lt;/font&gt;" style="text;html=1;strokeColor=none;fillColor=none;align=center;verticalAlign=middle;whiteSpace=wrap;rounded=0;sketch=1;hachureGap=4;jiggle=2;curveFitting=1;fontFamily=Verdana;fontSize=14;" vertex="1" parent="1">
                    <mxGeometry x="-905" y="490" width="150" height="30" as="geometry"/>
                </mxCell>
            </root>
        </mxGraphModel>
    </diagram>
</mxfile>